<svg width="44" height="44" viewBox="0 0 44 44" fill="none" xmlns="http://www.w3.org/2000/svg">
<rect width="44" height="44" rx="22" fill="url(#paint0_linear_952_25)"/>
<path fill-rule="evenodd" clip-rule="evenodd" d="M21.9998 9.16666C14.9122 9.16666 9.1665 14.9123 9.1665 22C9.1665 29.0877 14.9122 34.8333 21.9998 34.8333C29.0875 34.8333 34.8332 29.0877 34.8332 22C34.8332 14.9123 29.0875 9.16666 21.9998 9.16666ZM20.4033 17.8754C20.9029 18.2823 20.978 19.0172 20.5711 19.5168C19.9176 20.3192 18.9698 20.8334 17.9165 20.8334C16.8515 20.8334 15.9318 20.3095 15.2756 19.5332C14.8596 19.0411 14.9213 18.305 15.4133 17.8891C15.9054 17.4731 16.6415 17.5348 17.0575 18.0268C17.3579 18.3822 17.6632 18.5 17.9165 18.5C18.1815 18.5 18.4938 18.3725 18.7619 18.0433C19.1688 17.5437 19.9037 17.4685 20.4033 17.8754ZM28.5699 17.8754C29.0695 18.2823 29.1447 19.0172 28.7378 19.5168C28.0843 20.3192 27.1365 20.8334 26.0832 20.8334C25.0182 20.8334 24.0985 20.3095 23.4422 19.5332C23.0263 19.0411 23.0879 18.305 23.58 17.8891C24.0721 17.4731 24.8082 17.5348 25.2242 18.0268C25.5246 18.3822 25.8299 18.5 26.0832 18.5C26.3482 18.5 26.6604 18.3725 26.9286 18.0433C27.3355 17.5437 28.0703 17.4685 28.5699 17.8754ZM16.6333 27.6C17.1471 27.9854 17.8754 27.8828 18.2629 27.3716L18.2683 27.3646C18.2753 27.3559 18.2885 27.3394 18.3078 27.3164C18.3465 27.2704 18.4092 27.1985 18.4946 27.1093C18.6664 26.93 18.9247 26.6867 19.259 26.4435C19.9323 25.9539 20.863 25.5 21.9999 25.5C23.1368 25.5 24.0676 25.9539 24.7408 26.4435C25.0752 26.6867 25.3334 26.93 25.5053 27.1093C25.5907 27.1985 25.6534 27.2704 25.6921 27.3164C25.7114 27.3394 25.7246 27.3559 25.7315 27.3646L25.7369 27.3716C26.1245 27.8828 26.8528 27.9854 27.3666 27.6C27.8821 27.2134 27.9865 26.4822 27.5999 25.9667L27.4793 25.8164C27.4109 25.7349 27.3141 25.6245 27.1899 25.4949C26.9425 25.2367 26.5809 24.8967 26.1132 24.5565C25.1823 23.8795 23.7797 23.1667 21.9999 23.1667C20.2201 23.1667 18.8176 23.8795 17.8866 24.5565C17.4189 24.8967 17.0574 25.2367 16.81 25.4949C16.6858 25.6245 16.5889 25.7349 16.5205 25.8164C16.4792 25.8656 16.4393 25.9159 16.3999 25.9667C16.0133 26.4822 16.1178 27.2134 16.6333 27.6Z" fill="#9091A0"/>
<defs>
<linearGradient id="paint0_linear_952_25" x1="22" y1="0" x2="22" y2="44" gradientUnits="userSpaceOnUse">
<stop stop-color="white" stop-opacity="0.03"/>
<stop offset="1" stop-color="white" stop-opacity="0.1"/>
</linearGradient>
</defs>
</svg>
